<mxfile host="app.diagrams.net" modified="2023-11-13T21:10:00.837Z" agent="Mozilla/5.0 (Windows NT 10.0; Win64; x64) AppleWebKit/537.36 (KHTML, like Gecko) Chrome/119.0.0.0 Safari/537.36" etag="hYroe7CVzoRVfDlA281l" version="22.1.0" type="device">
  <diagram name="Page-1" id="c4acf3e9-155e-7222-9cf6-157b1a14988f">
    <mxGraphModel dx="1600" dy="869" grid="1" gridSize="10" guides="1" tooltips="1" connect="1" arrows="1" fold="1" page="1" pageScale="1" pageWidth="850" pageHeight="1100" background="none" math="0" shadow="0">
      <root>
        <mxCell id="0" />
        <mxCell id="1" parent="0" />
        <mxCell id="Ky59wfYFs1N-8h2T3Rqq-1" value="Pessoa" style="swimlane;fontStyle=0;childLayout=stackLayout;horizontal=1;startSize=30;horizontalStack=0;resizeParent=1;resizeParentMax=0;resizeLast=0;collapsible=1;marginBottom=0;whiteSpace=wrap;html=1;" vertex="1" parent="1">
          <mxGeometry x="280" y="830" width="150" height="60" as="geometry" />
        </mxCell>
        <mxCell id="Ky59wfYFs1N-8h2T3Rqq-2" value="- nome: String" style="text;strokeColor=none;fillColor=none;align=left;verticalAlign=middle;spacingLeft=4;spacingRight=4;overflow=hidden;points=[[0,0.5],[1,0.5]];portConstraint=eastwest;rotatable=0;whiteSpace=wrap;html=1;" vertex="1" parent="Ky59wfYFs1N-8h2T3Rqq-1">
          <mxGeometry y="30" width="150" height="30" as="geometry" />
        </mxCell>
        <mxCell id="Ky59wfYFs1N-8h2T3Rqq-5" value="Pessoa Física" style="swimlane;fontStyle=0;childLayout=stackLayout;horizontal=1;startSize=30;horizontalStack=0;resizeParent=1;resizeParentMax=0;resizeLast=0;collapsible=1;marginBottom=0;whiteSpace=wrap;html=1;" vertex="1" parent="1">
          <mxGeometry x="520" y="959" width="150" height="60" as="geometry" />
        </mxCell>
        <mxCell id="Ky59wfYFs1N-8h2T3Rqq-6" value="- cpf: int" style="text;strokeColor=none;fillColor=none;align=left;verticalAlign=middle;spacingLeft=4;spacingRight=4;overflow=hidden;points=[[0,0.5],[1,0.5]];portConstraint=eastwest;rotatable=0;whiteSpace=wrap;html=1;" vertex="1" parent="Ky59wfYFs1N-8h2T3Rqq-5">
          <mxGeometry y="30" width="150" height="30" as="geometry" />
        </mxCell>
        <mxCell id="Ky59wfYFs1N-8h2T3Rqq-7" value="Pessoa Jurídica" style="swimlane;fontStyle=0;childLayout=stackLayout;horizontal=1;startSize=30;horizontalStack=0;resizeParent=1;resizeParentMax=0;resizeLast=0;collapsible=1;marginBottom=0;whiteSpace=wrap;html=1;" vertex="1" parent="1">
          <mxGeometry x="360" y="959" width="150" height="60" as="geometry" />
        </mxCell>
        <mxCell id="Ky59wfYFs1N-8h2T3Rqq-8" value="- cnpj: int" style="text;strokeColor=none;fillColor=none;align=left;verticalAlign=middle;spacingLeft=4;spacingRight=4;overflow=hidden;points=[[0,0.5],[1,0.5]];portConstraint=eastwest;rotatable=0;whiteSpace=wrap;html=1;" vertex="1" parent="Ky59wfYFs1N-8h2T3Rqq-7">
          <mxGeometry y="30" width="150" height="30" as="geometry" />
        </mxCell>
        <mxCell id="Ky59wfYFs1N-8h2T3Rqq-16" value="Advogado(a)" style="swimlane;fontStyle=0;childLayout=stackLayout;horizontal=1;startSize=30;horizontalStack=0;resizeParent=1;resizeParentMax=0;resizeLast=0;collapsible=1;marginBottom=0;whiteSpace=wrap;html=1;" vertex="1" parent="1">
          <mxGeometry x="200" y="959" width="150" height="120" as="geometry" />
        </mxCell>
        <mxCell id="Ky59wfYFs1N-8h2T3Rqq-17" value="- oab: int&lt;br&gt;&lt;br&gt;- login: String&lt;br&gt;&lt;br&gt;- senha: String" style="text;strokeColor=none;fillColor=none;align=left;verticalAlign=middle;spacingLeft=4;spacingRight=4;overflow=hidden;points=[[0,0.5],[1,0.5]];portConstraint=eastwest;rotatable=0;whiteSpace=wrap;html=1;" vertex="1" parent="Ky59wfYFs1N-8h2T3Rqq-16">
          <mxGeometry y="30" width="150" height="90" as="geometry" />
        </mxCell>
        <mxCell id="Ky59wfYFs1N-8h2T3Rqq-18" value="secretário(a)" style="swimlane;fontStyle=0;childLayout=stackLayout;horizontal=1;startSize=30;horizontalStack=0;resizeParent=1;resizeParentMax=0;resizeLast=0;collapsible=1;marginBottom=0;whiteSpace=wrap;html=1;" vertex="1" parent="1">
          <mxGeometry x="40" y="959" width="150" height="120" as="geometry" />
        </mxCell>
        <mxCell id="Ky59wfYFs1N-8h2T3Rqq-19" value="- nº carteira de trabalho: int&lt;br&gt;&lt;br&gt;- login: String&lt;br&gt;&lt;br&gt;- senha: String" style="text;strokeColor=none;fillColor=none;align=left;verticalAlign=middle;spacingLeft=4;spacingRight=4;overflow=hidden;points=[[0,0.5],[1,0.5]];portConstraint=eastwest;rotatable=0;whiteSpace=wrap;html=1;" vertex="1" parent="Ky59wfYFs1N-8h2T3Rqq-18">
          <mxGeometry y="30" width="150" height="90" as="geometry" />
        </mxCell>
        <mxCell id="Ky59wfYFs1N-8h2T3Rqq-20" value="" style="endArrow=none;html=1;rounded=0;exitX=0.5;exitY=0;exitDx=0;exitDy=0;entryX=0.54;entryY=-0.013;entryDx=0;entryDy=0;entryPerimeter=0;" edge="1" parent="1" source="Ky59wfYFs1N-8h2T3Rqq-18" target="Ky59wfYFs1N-8h2T3Rqq-5">
          <mxGeometry width="50" height="50" relative="1" as="geometry">
            <mxPoint x="110" y="950" as="sourcePoint" />
            <mxPoint x="590" y="950" as="targetPoint" />
            <Array as="points">
              <mxPoint x="115" y="930" />
              <mxPoint x="270" y="930" />
              <mxPoint x="490" y="930" />
              <mxPoint x="600" y="930" />
            </Array>
          </mxGeometry>
        </mxCell>
        <mxCell id="Ky59wfYFs1N-8h2T3Rqq-21" value="" style="endArrow=none;html=1;rounded=0;exitX=0.5;exitY=0;exitDx=0;exitDy=0;" edge="1" parent="1">
          <mxGeometry width="50" height="50" relative="1" as="geometry">
            <mxPoint x="430" y="959" as="sourcePoint" />
            <mxPoint x="430" y="930" as="targetPoint" />
            <Array as="points" />
          </mxGeometry>
        </mxCell>
        <mxCell id="Ky59wfYFs1N-8h2T3Rqq-25" value="" style="endArrow=none;html=1;rounded=0;" edge="1" parent="1">
          <mxGeometry width="50" height="50" relative="1" as="geometry">
            <mxPoint x="270" y="959" as="sourcePoint" />
            <mxPoint x="270" y="930" as="targetPoint" />
          </mxGeometry>
        </mxCell>
        <mxCell id="Ky59wfYFs1N-8h2T3Rqq-29" value="" style="endArrow=classic;html=1;rounded=0;entryX=0.507;entryY=1.033;entryDx=0;entryDy=0;entryPerimeter=0;" edge="1" parent="1" target="Ky59wfYFs1N-8h2T3Rqq-2">
          <mxGeometry width="50" height="50" relative="1" as="geometry">
            <mxPoint x="356" y="930" as="sourcePoint" />
            <mxPoint x="400" y="880" as="targetPoint" />
          </mxGeometry>
        </mxCell>
        <mxCell id="Ky59wfYFs1N-8h2T3Rqq-30" value="Processo" style="swimlane;fontStyle=0;childLayout=stackLayout;horizontal=1;startSize=30;horizontalStack=0;resizeParent=1;resizeParentMax=0;resizeLast=0;collapsible=1;marginBottom=0;whiteSpace=wrap;html=1;" vertex="1" parent="1">
          <mxGeometry x="75" y="630" width="150" height="210" as="geometry" />
        </mxCell>
        <mxCell id="Ky59wfYFs1N-8h2T3Rqq-31" value="- código do processo: int" style="text;strokeColor=none;fillColor=none;align=left;verticalAlign=middle;spacingLeft=4;spacingRight=4;overflow=hidden;points=[[0,0.5],[1,0.5]];portConstraint=eastwest;rotatable=0;whiteSpace=wrap;html=1;" vertex="1" parent="Ky59wfYFs1N-8h2T3Rqq-30">
          <mxGeometry y="30" width="150" height="30" as="geometry" />
        </mxCell>
        <mxCell id="Ky59wfYFs1N-8h2T3Rqq-32" value="- tribunal: String" style="text;strokeColor=none;fillColor=none;align=left;verticalAlign=middle;spacingLeft=4;spacingRight=4;overflow=hidden;points=[[0,0.5],[1,0.5]];portConstraint=eastwest;rotatable=0;whiteSpace=wrap;html=1;" vertex="1" parent="Ky59wfYFs1N-8h2T3Rqq-30">
          <mxGeometry y="60" width="150" height="30" as="geometry" />
        </mxCell>
        <mxCell id="Ky59wfYFs1N-8h2T3Rqq-33" value="- vara: String" style="text;strokeColor=none;fillColor=none;align=left;verticalAlign=middle;spacingLeft=4;spacingRight=4;overflow=hidden;points=[[0,0.5],[1,0.5]];portConstraint=eastwest;rotatable=0;whiteSpace=wrap;html=1;" vertex="1" parent="Ky59wfYFs1N-8h2T3Rqq-30">
          <mxGeometry y="90" width="150" height="30" as="geometry" />
        </mxCell>
        <mxCell id="Ky59wfYFs1N-8h2T3Rqq-34" value="- parte contrária: String" style="text;strokeColor=none;fillColor=none;align=left;verticalAlign=middle;spacingLeft=4;spacingRight=4;overflow=hidden;points=[[0,0.5],[1,0.5]];portConstraint=eastwest;rotatable=0;whiteSpace=wrap;html=1;" vertex="1" parent="Ky59wfYFs1N-8h2T3Rqq-30">
          <mxGeometry y="120" width="150" height="30" as="geometry" />
        </mxCell>
        <mxCell id="Ky59wfYFs1N-8h2T3Rqq-35" value="- motivação: String" style="text;strokeColor=none;fillColor=none;align=left;verticalAlign=middle;spacingLeft=4;spacingRight=4;overflow=hidden;points=[[0,0.5],[1,0.5]];portConstraint=eastwest;rotatable=0;whiteSpace=wrap;html=1;" vertex="1" parent="Ky59wfYFs1N-8h2T3Rqq-30">
          <mxGeometry y="150" width="150" height="30" as="geometry" />
        </mxCell>
        <mxCell id="Ky59wfYFs1N-8h2T3Rqq-45" value="- data de início: String" style="text;strokeColor=none;fillColor=none;align=left;verticalAlign=middle;spacingLeft=4;spacingRight=4;overflow=hidden;points=[[0,0.5],[1,0.5]];portConstraint=eastwest;rotatable=0;whiteSpace=wrap;html=1;" vertex="1" parent="Ky59wfYFs1N-8h2T3Rqq-30">
          <mxGeometry y="180" width="150" height="30" as="geometry" />
        </mxCell>
        <mxCell id="Ky59wfYFs1N-8h2T3Rqq-38" style="edgeStyle=orthogonalEdgeStyle;rounded=0;orthogonalLoop=1;jettySize=auto;html=1;exitX=1;exitY=0.5;exitDx=0;exitDy=0;" edge="1" parent="Ky59wfYFs1N-8h2T3Rqq-30" source="Ky59wfYFs1N-8h2T3Rqq-33" target="Ky59wfYFs1N-8h2T3Rqq-33">
          <mxGeometry relative="1" as="geometry" />
        </mxCell>
        <mxCell id="Ky59wfYFs1N-8h2T3Rqq-55" value="" style="edgeStyle=orthogonalEdgeStyle;rounded=0;orthogonalLoop=1;jettySize=auto;html=1;entryX=0.962;entryY=-0.036;entryDx=0;entryDy=0;entryPerimeter=0;" edge="1" parent="1">
          <mxGeometry relative="1" as="geometry">
            <mxPoint x="280.7" y="720.0446511627907" as="sourcePoint" />
            <mxPoint x="225.00000000000006" y="733.96" as="targetPoint" />
            <Array as="points">
              <mxPoint x="281" y="734" />
            </Array>
          </mxGeometry>
        </mxCell>
        <mxCell id="Ky59wfYFs1N-8h2T3Rqq-46" value="Processo Fechado" style="swimlane;fontStyle=0;childLayout=stackLayout;horizontal=1;startSize=30;horizontalStack=0;resizeParent=1;resizeParentMax=0;resizeLast=0;collapsible=1;marginBottom=0;whiteSpace=wrap;html=1;" vertex="1" parent="1">
          <mxGeometry x="275" y="705" width="150" height="60" as="geometry" />
        </mxCell>
        <mxCell id="Ky59wfYFs1N-8h2T3Rqq-52" value="- data de início: String" style="text;strokeColor=none;fillColor=none;align=left;verticalAlign=middle;spacingLeft=4;spacingRight=4;overflow=hidden;points=[[0,0.5],[1,0.5]];portConstraint=eastwest;rotatable=0;whiteSpace=wrap;html=1;" vertex="1" parent="Ky59wfYFs1N-8h2T3Rqq-46">
          <mxGeometry y="30" width="150" height="30" as="geometry" />
        </mxCell>
        <mxCell id="Ky59wfYFs1N-8h2T3Rqq-53" style="edgeStyle=orthogonalEdgeStyle;rounded=0;orthogonalLoop=1;jettySize=auto;html=1;exitX=1;exitY=0.5;exitDx=0;exitDy=0;" edge="1" parent="Ky59wfYFs1N-8h2T3Rqq-46">
          <mxGeometry relative="1" as="geometry">
            <mxPoint x="150" y="105" as="sourcePoint" />
            <mxPoint x="150" y="105" as="targetPoint" />
          </mxGeometry>
        </mxCell>
      </root>
    </mxGraphModel>
  </diagram>
</mxfile>
